<?xml version="1.0" standalone="no"?>
<!DOCTYPE svg PUBLIC "-//W3C//DTD SVG 20010904//EN"
 "http://www.w3.org/TR/2001/REC-SVG-20010904/DTD/svg10.dtd">
<svg version="1.0" xmlns="http://www.w3.org/2000/svg"
 width="16.000000pt" height="16.000000pt" viewBox="0 0 16.000000 16.000000"
 preserveAspectRatio="xMidYMid meet">
<metadata>
Created by potrace 1.11, written by Peter Selinger 2001-2013
</metadata>
<g transform="translate(0.000000,16.000000) scale(0.004000,-0.004000)"
fill="#000000" stroke="none">
<path d="M1454 3496 c-49 -88 -106 -192 -128 -231 -21 -38 -106 -191 -189
-340 -82 -148 -160 -288 -172 -310 -12 -22 -56 -101 -97 -175 -41 -74 -87
-156 -102 -182 -14 -27 -37 -67 -50 -90 -13 -24 -137 -248 -276 -498 -139
-250 -264 -475 -278 -500 -13 -25 -56 -101 -93 -169 l-69 -123 0 -267 0 -267
288 0 288 0 112 201 c62 110 122 218 134 240 12 22 45 81 74 130 28 50 67 119
86 155 20 36 248 445 508 910 260 465 480 860 489 877 9 18 18 33 21 33 4 0
221 -380 336 -589 17 -31 68 -120 112 -199 45 -79 82 -145 82 -146 0 -2 -105
-3 -232 -4 -128 0 -241 -1 -250 -1 -10 -1 -35 -33 -63 -83 -25 -46 -55 -99
-67 -118 -27 -46 -182 -319 -195 -345 -11 -20 -9 -20 988 -20 549 0 999 3 999
7 0 4 -122 227 -271 495 -149 268 -285 513 -302 543 -16 30 -139 251 -272 490
-133 239 -258 464 -277 500 -102 185 -120 216 -129 225 -6 6 -175 10 -463 10
l-452 1 -90 -160z"/>
<path d="M1467 928 c-17 -28 -52 -89 -82 -143 -12 -22 -70 -126 -129 -232 -58
-105 -106 -195 -106 -200 0 -5 630 -9 1423 -8 l1422 0 0 275 c0 252 -2 277
-19 303 l-18 27 -1239 0 -1239 0 -13 -22z"/>
</g>
</svg>
